# xmcd CD database file
#
# Track frame offsets:
#	150
#	13725
#	27530
#	38555
#	49592
#	61500
#	74032
#	87380
#	101502
#	117767
#	135570
#	150870
#	164220
#	176985
#	185505
#	196660
#	208522
#	219120
#	229345
#	238772
#
# Disc length: 3415 seconds
#
# Revision: 0
# Processed by: cddbd v1.4PL0 Copyright (c) Steve Scherf et al.
# Submitted via: CDex 1.50
#
DISCID=120d5514
DTITLE=Various Artist - Aperitivo Volume Uno Track Title
DYEAR=1900
DGENRE=Jazz
TTITLE0=Ritmo Senza Parole
TTITLE1=Pop Rock
TTITLE2=Bossando In Be-Bop
TTITLE3=Adnova
TTITLE4=From Sonora
TTITLE5=Carosello
TTITLE6=Aperitivo
TTITLE7=Elegantissima
TTITLE8=Bossando In Beat
TTITLE9=Beat For Sax
TTITLE10=Rock In Jazz
TTITLE11=Nimal E Il Mare
TTITLE12=Relax In Blues
TTITLE13=Cararet
TTITLE14=Ritorno Dalla Gita
TTITLE15=Nella Hall
TTITLE16=Luminoso
TTITLE17=Femmine
TTITLE18=Movimento Ritmico
TTITLE19=Flabby's Groove
EXTD=
EXTT0=
EXTT1=
EXTT2=
EXTT3=
EXTT4=
EXTT5=
EXTT6=
EXTT7=
EXTT8=
EXTT9=
EXTT10=
EXTT11=
EXTT12=
EXTT13=
EXTT14=
EXTT15=
EXTT16=
EXTT17=
EXTT18=
EXTT19=
PLAYORDER=
